<svg width="42" height="42" fill="none" xmlns="http://www.w3.org/2000/svg"><rect x="6" y="6" width="30" height="30" rx="2.625" stroke="#fff" stroke-width="2.625"></rect><path d="m22.607 26-3.902-10h-1.803L13 26h1.959l.637-1.714h4.415L20.648 26h1.96Zm-4.819-7.529h.031l1.601 4.243h-3.233l1.601-4.243ZM26 26V16h-1.943v10H26Z" fill="#fff"></path><path d="M37.333 12H40m-4 9.5h4M36 31h4M31 2v4.071M21 2v4.071M11 2v4.071M31 35.93V40m-10-4.071V40m-10-4.071V40M2 12h4m-4 9.5h4M2 31h4" stroke="#fff" stroke-width="2.625"></path></svg>